<?xml version="1.0" encoding="utf-8"?>
<!-- Generator: Adobe Illustrator 14.0.0, SVG Export Plug-In . SVG Version: 6.00 Build 43363)  -->
<!DOCTYPE svg PUBLIC "-//W3C//DTD SVG 1.1//EN" "http://www.w3.org/Graphics/SVG/1.1/DTD/svg11.dtd">
<svg version="1.1" id="Layer_1" xmlns="http://www.w3.org/2000/svg" xmlns:xlink="http://www.w3.org/1999/xlink" x="0px" y="0px"
	 width="26px" height="34px" viewBox="0 0 26 34" enable-background="new 0 0 26 34" xml:space="preserve">
<g>
	<path opacity="0.75" fill="#636363" enable-background="new    " d="M3.673,22.779c-0.008-0.012-0.018-0.022-0.026-0.033
		C1.619,20.41,0.5,17.401,0.5,14.273C0.5,7.23,6.107,1.5,13,1.5c6.893,0,12.5,5.73,12.5,12.773c0,3.125-1.117,6.135-3.146,8.473
		c-0.01,0.011-0.018,0.021-0.022,0.031L13,32.286L3.673,22.779z"/>
	<path fill="#636363" d="M13,2c6.618,0,12,5.506,12,12.273c0,3.005-1.074,5.897-3.025,8.146c-0.008,0.009-0.016,0.019-0.021,0.028
		L13,31.572L4.05,22.45c-0.008-0.011-0.016-0.021-0.025-0.032C2.074,20.173,1,17.28,1,14.273C1,7.506,6.382,2,13,2 M13,1
		C5.82,1,0,6.943,0,14.273c0,3.377,1.235,6.459,3.271,8.801l-0.003,0.004L13,33l9.732-9.922l-0.002-0.004
		C24.764,20.732,26,17.65,26,14.273C26,6.943,20.182,1,13,1L13,1z"/>
</g>
<path opacity="0.2" fill="#333333" enable-background="new    " d="M19,33c0,0.553-2.686,1-6,1c-3.314,0-6-0.447-6-1s2.686-1,6-1
	C16.314,32,19,32.447,19,33"/>
<path fill="#FFFFFF" d="M15.626,6.399C14.92,6.142,13.986,6,13,6c-0.987,0-1.92,0.142-2.626,0.399
	c-1.024,0.374-1.24,0.858-1.24,1.198V20.4c0,0.342,0.215,0.824,1.24,1.199C11.08,21.857,12.013,22,13,22
	c0.986,0,1.92-0.143,2.626-0.398c1.024-0.375,1.239-0.858,1.239-1.199V7.598C16.865,7.257,16.65,6.773,15.626,6.399z M15.943,13.112
	c0,0.107-0.059,0.206-0.151,0.257c-0.048,0.027-1.206,0.658-2.833,0.658c-0.957,0-1.88-0.22-2.74-0.652
	c-0.1-0.05-0.162-0.152-0.162-0.263v-3.086c0-0.104,0.055-0.2,0.144-0.253c0.089-0.053,0.2-0.055,0.291-0.005
	c0.013,0.007,1.059,0.563,2.525,0.563c0.867,0,1.711-0.192,2.506-0.57c0.092-0.043,0.197-0.037,0.283,0.017
	c0.086,0.054,0.139,0.148,0.139,0.249v3.085H15.943z M16.535,7.854c-0.037,0.08-0.09,0.151-0.148,0.215
	c-0.119,0.128-0.263,0.228-0.41,0.314c-0.3,0.171-0.623,0.289-0.951,0.383c-0.33,0.092-0.666,0.157-1.004,0.204
	C13.684,9.015,13.342,9.04,13,9.049c-0.341,0.008-0.684,0.005-1.027-0.019c-0.343-0.025-0.685-0.08-1.019-0.174
	c-0.334-0.094-0.663-0.22-0.964-0.408C9.84,8.354,9.698,8.241,9.582,8.101c-0.057-0.072-0.107-0.149-0.14-0.236
	C9.41,7.779,9.396,7.685,9.411,7.598c0.001-0.01,0.011-0.017,0.021-0.015c0.008,0,0.014,0.007,0.015,0.015l0,0
	c0.028,0.164,0.132,0.289,0.254,0.385c0.122,0.098,0.265,0.172,0.411,0.236c0.295,0.126,0.611,0.211,0.93,0.28
	c0.319,0.068,0.643,0.122,0.97,0.169c0.326,0.047,0.656,0.079,0.989,0.086c0.331,0.008,0.663,0,0.994-0.027
	c0.331-0.025,0.661-0.069,0.985-0.139c0.324-0.069,0.646-0.162,0.941-0.305c0.146-0.072,0.29-0.158,0.408-0.269
	c0.061-0.055,0.113-0.117,0.152-0.188c0.041-0.07,0.065-0.147,0.068-0.229c0.001-0.011,0.01-0.019,0.02-0.018
	c0.011,0,0.019,0.008,0.019,0.018l0,0l0,0C16.593,7.685,16.572,7.774,16.535,7.854z"/>
</svg>
