<?xml version="1.0" encoding="utf-8"?>
<!-- Generator: Adobe Illustrator 14.0.0, SVG Export Plug-In . SVG Version: 6.00 Build 43363)  -->
<!DOCTYPE svg PUBLIC "-//W3C//DTD SVG 1.1//EN" "http://www.w3.org/Graphics/SVG/1.1/DTD/svg11.dtd">
<svg version="1.1" id="Layer_1" xmlns="http://www.w3.org/2000/svg" xmlns:xlink="http://www.w3.org/1999/xlink" x="0px" y="0px"
	 width="26px" height="34px" viewBox="0 0 26 34" enable-background="new 0 0 26 34" xml:space="preserve">
<g>
	<path opacity="0.75" fill="#31A354" enable-background="new    " d="M3.673,22.779c-0.008-0.012-0.018-0.022-0.026-0.033
		C1.619,20.41,0.5,17.401,0.5,14.273C0.5,7.23,6.107,1.5,13,1.5c6.893,0,12.5,5.73,12.5,12.773c0,3.125-1.117,6.135-3.146,8.473
		c-0.01,0.011-0.018,0.021-0.022,0.031L13,32.286L3.673,22.779z"/>
	<path fill="#31A354" d="M13,2c6.618,0,12,5.506,12,12.273c0,3.005-1.074,5.897-3.025,8.146c-0.008,0.009-0.016,0.019-0.021,0.028
		L13,31.572L4.05,22.45c-0.008-0.011-0.016-0.021-0.025-0.032C2.074,20.173,1,17.28,1,14.273C1,7.506,6.382,2,13,2 M13,1
		C5.82,1,0,6.943,0,14.273c0,3.377,1.235,6.459,3.271,8.801l-0.003,0.004L13,33l9.732-9.922l-0.002-0.004
		C24.764,20.732,26,17.65,26,14.273C26,6.943,20.182,1,13,1L13,1z"/>
</g>
<path opacity="0.2" fill="#333333" enable-background="new    " d="M19,33c0,0.553-2.686,1-6,1c-3.314,0-6-0.447-6-1s2.686-1,6-1
	C16.314,32,19,32.447,19,33"/>
<g>
	<g>
		<path fill="#FFFFFF" d="M17.354,7.062c-0.332-0.168-0.696-0.253-1.078-0.253c-1.191,0-2.371,0.815-3.008,2.076
			c-0.414,0.82-0.546,1.723-0.372,2.54c0.004,0.021,0.009,0.04,0.015,0.06c1.177,0.013,2.158,0.876,2.402,2.025
			c1.189-0.001,2.369-0.816,3.006-2.076C19.177,9.727,18.746,7.767,17.354,7.062z"/>
	</g>
	<g>
		<path fill="#FFFFFF" d="M14.643,15.895c-0.451,0.468-1.072,0.757-1.76,0.757c-0.621,0-1.188-0.236-1.624-0.627
			c-0.649,0.636-1.065,1.616-1.065,2.711c0,1.912,1.268,3.469,2.828,3.469s2.828-1.557,2.828-3.469
			C15.85,17.561,15.373,16.522,14.643,15.895z"/>
	</g>
	<g>
		<path fill="#FFFFFF" d="M12.883,11.485c0.053,0,0.106,0.003,0.159,0.007c0.04-0.158,0.069-0.321,0.084-0.49
			c0.077-0.834-0.16-1.715-0.667-2.479c-0.706-1.064-1.826-1.727-2.924-1.727c-0.491,0-0.958,0.137-1.35,0.396
			c-1.3,0.861-1.499,2.858-0.443,4.454c0.667,1.007,1.706,1.653,2.746,1.72C10.783,12.282,11.743,11.485,12.883,11.485z"/>
	</g>
	<g>
		<path fill="#FFFFFF" d="M10.395,14.069c0-0.333,0.061-0.65,0.17-0.941c-0.462-0.288-1.035-0.446-1.669-0.446
			c-0.604,0-1.226,0.149-1.797,0.433c-0.822,0.408-1.468,1.05-1.82,1.809c-0.36,0.776-0.372,1.581-0.032,2.266
			c0.443,0.895,1.402,1.427,2.567,1.427c0.604,0,1.226-0.15,1.797-0.434c0.91-0.451,1.571-1.177,1.887-1.969
			C10.833,15.75,10.395,14.963,10.395,14.069z"/>
	</g>
	<g>
		<path fill="#FFFFFF" d="M20.736,15.053c-0.34-0.763-0.979-1.414-1.795-1.833c-0.584-0.298-1.223-0.456-1.842-0.456
			c-0.711,0-1.348,0.202-1.834,0.565c0.067,0.234,0.104,0.482,0.104,0.74c0,0.814-0.363,1.54-0.932,2.013
			c0.272,0.864,0.951,1.676,1.922,2.173c0.584,0.3,1.222,0.457,1.841,0.457c1.142,0,2.091-0.521,2.536-1.393
			C21.088,16.638,21.087,15.833,20.736,15.053z"/>
	</g>
</g>
</svg>
