<?xml version="1.0" encoding="utf-8"?>
<!-- Generator: Adobe Illustrator 14.0.0, SVG Export Plug-In . SVG Version: 6.00 Build 43363)  -->
<!DOCTYPE svg PUBLIC "-//W3C//DTD SVG 1.1//EN" "http://www.w3.org/Graphics/SVG/1.1/DTD/svg11.dtd">
<svg version="1.1" id="Layer_1" xmlns="http://www.w3.org/2000/svg" xmlns:xlink="http://www.w3.org/1999/xlink" x="0px" y="0px"
	 width="26px" height="34px" viewBox="0 0 26 34" enable-background="new 0 0 26 34" xml:space="preserve">
<path opacity="0.2" fill="#333333" enable-background="new    " d="M19,33c0,0.553-2.686,1-6,1c-3.314,0-6-0.447-6-1s2.686-1,6-1
	C16.314,32,19,32.447,19,33"/>
<g>
	<path opacity="0.75" fill="#3182BD" enable-background="new    " d="M3.673,22.779c-0.008-0.012-0.017-0.022-0.026-0.033
		C1.618,20.41,0.5,17.401,0.5,14.273C0.5,7.23,6.107,1.5,12.999,1.5C19.893,1.5,25.5,7.23,25.5,14.273
		c0,3.125-1.118,6.135-3.146,8.473c-0.01,0.011-0.018,0.021-0.023,0.031L13,32.286L3.673,22.779z"/>
	<path fill="#3182BD" d="M12.999,2C19.616,2,25,7.506,25,14.273c0,3.005-1.074,5.897-3.025,8.146
		c-0.008,0.009-0.016,0.019-0.021,0.028L13,31.572L4.051,22.45c-0.008-0.011-0.017-0.021-0.026-0.032C2.074,20.173,1,17.28,1,14.273
		C1,7.506,6.383,2,12.999,2 M12.999,1C5.82,1,0,6.943,0,14.273c0,3.377,1.235,6.459,3.27,8.801l-0.003,0.004L12.999,33l9.733-9.922
		l-0.002-0.004C24.764,20.732,26,17.65,26,14.273C26,6.943,20.182,1,12.999,1L12.999,1z"/>
</g>
</svg>
