<?xml version="1.0" encoding="utf-8"?>
<!-- Generator: Adobe Illustrator 14.0.0, SVG Export Plug-In . SVG Version: 6.00 Build 43363)  -->
<!DOCTYPE svg PUBLIC "-//W3C//DTD SVG 1.1//EN" "http://www.w3.org/Graphics/SVG/1.1/DTD/svg11.dtd">
<svg version="1.1" id="Layer_1" xmlns="http://www.w3.org/2000/svg" xmlns:xlink="http://www.w3.org/1999/xlink" x="0px" y="0px"
	 width="26px" height="34px" viewBox="0 0 26 34" enable-background="new 0 0 26 34" xml:space="preserve">
<g>
	<path opacity="0.75" fill="#756BB1" enable-background="new    " d="M3.673,22.779c-0.008-0.012-0.018-0.022-0.026-0.033
		C1.619,20.41,0.5,17.401,0.5,14.273C0.5,7.23,6.107,1.5,13,1.5c6.893,0,12.5,5.73,12.5,12.773c0,3.125-1.117,6.135-3.146,8.473
		c-0.01,0.011-0.018,0.021-0.022,0.031L13,32.286L3.673,22.779z"/>
	<path fill="#756BB1" d="M13,2c6.618,0,12,5.506,12,12.273c0,3.005-1.074,5.897-3.025,8.146c-0.008,0.009-0.016,0.019-0.021,0.028
		L13,31.572L4.05,22.45c-0.008-0.011-0.016-0.021-0.025-0.032C2.074,20.173,1,17.28,1,14.273C1,7.506,6.382,2,13,2 M13,1
		C5.82,1,0,6.943,0,14.273c0,3.377,1.235,6.459,3.271,8.801l-0.003,0.004L13,33l9.732-9.922l-0.002-0.004
		C24.764,20.732,26,17.65,26,14.273C26,6.943,20.182,1,13,1L13,1z"/>
</g>
<g>
	<g>
		<path fill="#FFFFFF" d="M15.503,16.6c-0.088,0-0.177-0.008-0.267-0.023c-0.801-0.146-1.33-0.913-1.186-1.714
			c0.043-0.231,1.047-5.707,2.01-8.164c0.297-0.757,1.152-1.128,1.907-0.834c0.759,0.297,1.132,1.152,0.834,1.909
			c-0.858,2.193-1.843,7.563-1.853,7.617C16.82,16.102,16.2,16.6,15.503,16.6L15.503,16.6z"/>
	</g>
	<path fill="#FFFFFF" d="M15.312,16.698H8.667c-0.868,0-1.571-0.704-1.571-1.571c0-0.868,0.704-1.572,1.571-1.572h6.646
		c0.867,0,1.57,0.704,1.57,1.572C16.883,15.994,16.18,16.698,15.312,16.698L15.312,16.698z"/>
	<polygon fill="#FFFFFF" points="16.09,22.234 14.912,22.234 14.912,15.442 16.09,15.442 	"/>
	<polygon fill="#FFFFFF" points="9.884,22.234 8.706,22.234 8.706,15.442 9.884,15.442 	"/>
</g>
<path opacity="0.2" fill="#333333" enable-background="new    " d="M19,33c0,0.553-2.686,1-6,1c-3.314,0-6-0.447-6-1s2.686-1,6-1
	C16.314,32,19,32.447,19,33"/>
</svg>
